<svg width="53" height="24" viewBox="0 0 53 24" fill="none" xmlns="http://www.w3.org/2000/svg">
<g id="Logo ">
<g id="collaboration">
<path d="M3.06132 24C1.87087 24 1 22.9852 1 21.5289C1 20.0725 1.87087 19.0577 3.06132 19.0577C3.68451 19.0577 4.24379 19.3396 4.59533 19.894L4.39559 20.0913C4.08399 19.5839 3.59663 19.349 3.06132 19.349C2.03066 19.349 1.26366 20.2322 1.26366 21.5289C1.26366 22.8349 2.03066 23.7181 3.06132 23.7181C3.59663 23.7181 4.08399 23.4832 4.39559 22.9758L4.59533 23.1638C4.24379 23.7181 3.68451 24 3.06132 24Z" fill="#1B1B1B"/>
<path d="M7.34426 24C6.17778 24 5.30691 22.9758 5.30691 21.5289C5.30691 20.0819 6.17778 19.0577 7.34426 19.0577C8.51874 19.0577 9.38161 20.0819 9.38161 21.5289C9.38161 22.9758 8.51874 24 7.34426 24ZM7.34426 23.7181C8.35894 23.7181 9.11796 22.8255 9.11796 21.5289C9.11796 20.2322 8.35894 19.349 7.34426 19.349C6.32958 19.349 5.57056 20.2322 5.57056 21.5289C5.57056 22.8255 6.32958 23.7181 7.34426 23.7181Z" fill="#1B1B1B"/>
<path d="M10.686 23.9718V17H10.9496V23.9718H10.686Z" fill="#1B1B1B"/>
<path d="M12.7224 23.9718V17H12.9861V23.9718H12.7224Z" fill="#1B1B1B"/>
<path d="M16.1171 19.0577C17.1078 19.0577 17.6511 19.6685 17.6511 20.8148V23.9718H17.3954V22.9946C17.1397 23.6054 16.6124 24 15.8534 24C14.9186 24 14.3673 23.4456 14.3673 22.6282C14.3673 21.9141 14.7508 21.294 15.8774 21.294H17.3874V20.8148C17.3874 19.847 16.948 19.3396 16.1091 19.3396C15.5098 19.3396 14.9825 19.6027 14.631 19.9973L14.4872 19.7718C14.8867 19.3302 15.4859 19.0577 16.1171 19.0577ZM15.8694 23.7369C16.6364 23.7369 17.1317 23.3141 17.3874 22.5624V21.5477H15.8774C14.9745 21.5477 14.631 21.9987 14.631 22.6094C14.631 23.3047 15.0944 23.7369 15.8694 23.7369Z" fill="#1B1B1B"/>
<path d="M21.4232 19.0577C22.5737 19.0577 23.4525 20.0725 23.4525 21.5289C23.4525 22.9852 22.5737 24 21.4232 24C20.6082 24 19.9451 23.4832 19.6335 22.6376V23.9718H19.3778V17H19.6415V20.4013C19.9531 19.5651 20.6242 19.0577 21.4232 19.0577ZM21.4152 23.7181C22.4299 23.7181 23.1889 22.8255 23.1889 21.5289C23.1889 20.2322 22.4299 19.349 21.4152 19.349C20.4005 19.349 19.6415 20.2322 19.6415 21.5289C19.6415 22.8255 20.4005 23.7181 21.4152 23.7181Z" fill="#1B1B1B"/>
<path d="M26.3196 24C25.1531 24 24.2823 22.9758 24.2823 21.5289C24.2823 20.0819 25.1531 19.0577 26.3196 19.0577C27.4941 19.0577 28.357 20.0819 28.357 21.5289C28.357 22.9758 27.4941 24 26.3196 24ZM26.3196 23.7181C27.3343 23.7181 28.0933 22.8255 28.0933 21.5289C28.0933 20.2322 27.3343 19.349 26.3196 19.349C25.3049 19.349 24.5459 20.2322 24.5459 21.5289C24.5459 22.8255 25.3049 23.7181 26.3196 23.7181Z" fill="#1B1B1B"/>
<path d="M29.917 20.2698C30.1567 19.4993 30.716 19.0577 31.5309 19.0577V19.3678H31.459C30.4923 19.3678 29.925 20.1289 29.925 21.3785V23.9718H29.6613V19.0953H29.917V20.2698Z" fill="#1B1B1B"/>
<path d="M34.0391 19.0577C35.0298 19.0577 35.5731 19.6685 35.5731 20.8148V23.9718H35.3174V22.9946C35.0618 23.6054 34.5344 24 33.7754 24C32.8406 24 32.2894 23.4456 32.2894 22.6282C32.2894 21.9141 32.6729 21.294 33.7994 21.294H35.3094V20.8148C35.3094 19.847 34.87 19.3396 34.0311 19.3396C33.4319 19.3396 32.9046 19.6027 32.553 19.9973L32.4092 19.7718C32.8087 19.3302 33.4079 19.0577 34.0391 19.0577ZM33.7914 23.7369C34.5584 23.7369 35.0538 23.3141 35.3094 22.5624V21.5477H33.7994C32.8966 21.5477 32.553 21.9987 32.553 22.6094C32.553 23.3047 33.0164 23.7369 33.7914 23.7369Z" fill="#1B1B1B"/>
<path d="M39.1215 23.4362L39.2573 23.6617C39.0576 23.8872 38.73 24 38.4264 24C37.7393 24 37.3718 23.5114 37.3718 22.7503V19.3678H36.5888V19.0953H37.3718V18.0242H37.6354V19.0953H39.0016V19.3678H37.6354V22.7034C37.6354 23.3611 37.9151 23.7275 38.4504 23.7275C38.706 23.7275 38.9457 23.6242 39.1215 23.4362Z" fill="#1B1B1B"/>
<path d="M40.5564 17.8174C40.4126 17.8174 40.2928 17.6765 40.2928 17.5168C40.2928 17.3477 40.4126 17.2067 40.5564 17.2067C40.7002 17.2067 40.8201 17.3477 40.8201 17.5074C40.8201 17.6765 40.7002 17.8174 40.5564 17.8174ZM40.4286 23.9718V19.0953H40.6923V23.9718H40.4286Z" fill="#1B1B1B"/>
<path d="M44.031 24C42.8645 24 41.9936 22.9758 41.9936 21.5289C41.9936 20.0819 42.8645 19.0577 44.031 19.0577C45.2055 19.0577 46.0683 20.0819 46.0683 21.5289C46.0683 22.9758 45.2055 24 44.031 24ZM44.031 23.7181C45.0457 23.7181 45.8047 22.8255 45.8047 21.5289C45.8047 20.2322 45.0457 19.349 44.031 19.349C43.0163 19.349 42.2573 20.2322 42.2573 21.5289C42.2573 22.8255 43.0163 23.7181 44.031 23.7181Z" fill="#1B1B1B"/>
<path d="M49.3302 19.0577C50.3448 19.0577 51 19.7624 51 21.106V23.9718H50.7363V21.1248C50.7363 19.9597 50.209 19.349 49.3062 19.349C48.2675 19.349 47.6364 20.1383 47.6364 21.3409V23.9718H47.3727V19.0953H47.6284V20.2886C47.892 19.5369 48.4913 19.0577 49.3302 19.0577Z" fill="#1B1B1B"/>
</g>
<g id="kllapp.">
<path d="M2.4435 9.73333L1.50735 7.73333L5.44234 3.48333H8.79026L2.4435 9.73333ZM0 12.3333V0H2.5387V12.3333H0ZM5.71208 12.3333L2.74497 8.3L4.53793 6.83333L8.71092 12.3333H5.71208Z" fill="#1B1B1B"/>
<path d="M9.87069 12.3333V0H12.4094V12.3333H9.87069Z" fill="#1B1B1B"/>
<path d="M14.6896 12.3333V0H17.2283V12.3333H14.6896Z" fill="#1B1B1B"/>
<path d="M22.4477 12.4833C21.739 12.4833 21.1043 12.2889 20.5437 11.9C19.9936 11.5 19.5546 10.9556 19.2267 10.2667C18.8988 9.56667 18.7348 8.77778 18.7348 7.9C18.7348 7 18.8988 6.20556 19.2267 5.51667C19.5546 4.82778 20.0042 4.28889 20.5754 3.9C21.1466 3.5 21.7971 3.3 22.527 3.3C22.929 3.3 23.2939 3.36111 23.6218 3.48333C23.9603 3.60556 24.2565 3.77778 24.5104 4C24.7642 4.21111 24.9811 4.46111 25.1609 4.75C25.3407 5.02778 25.473 5.32778 25.5576 5.65L25.034 5.58333V3.48333H27.5568V12.3333H24.9864V10.2L25.5576 10.1833C25.473 10.4944 25.3355 10.7889 25.1451 11.0667C24.9547 11.3444 24.7219 11.5889 24.4469 11.8C24.1719 12.0111 23.8651 12.1778 23.5266 12.3C23.1881 12.4222 22.8285 12.4833 22.4477 12.4833ZM23.1458 10.2333C23.5372 10.2333 23.8757 10.1389 24.1613 9.95C24.4469 9.76111 24.669 9.49444 24.8277 9.15C24.9864 8.79445 25.0657 8.37778 25.0657 7.9C25.0657 7.42222 24.9864 7.01111 24.8277 6.66667C24.669 6.31111 24.4469 6.03889 24.1613 5.85C23.8757 5.65 23.5372 5.55 23.1458 5.55C22.765 5.55 22.4318 5.65 22.1462 5.85C21.8712 6.03889 21.6543 6.31111 21.4957 6.66667C21.337 7.01111 21.2577 7.42222 21.2577 7.9C21.2577 8.37778 21.337 8.79445 21.4957 9.15C21.6543 9.49444 21.8712 9.76111 22.1462 9.95C22.4318 10.1389 22.765 10.2333 23.1458 10.2333Z" fill="#1B1B1B"/>
<path d="M29.7969 16V3.48333H32.2087L32.3039 5.46667L31.8279 5.31667C31.9019 4.95 32.0817 4.61667 32.3673 4.31667C32.6529 4.01667 33.0126 3.77778 33.4463 3.6C33.8906 3.41111 34.356 3.31667 34.8426 3.31667C35.5619 3.31667 36.2018 3.51667 36.7625 3.91667C37.3231 4.30556 37.7621 4.84444 38.0794 5.53333C38.4073 6.21111 38.5713 7 38.5713 7.9C38.5713 8.78889 38.4073 9.57778 38.0794 10.2667C37.7621 10.9556 37.3178 11.5 36.7466 11.9C36.186 12.2889 35.5407 12.4833 34.8108 12.4833C34.3348 12.4833 33.88 12.3889 33.4463 12.2C33.0126 12.0111 32.6477 11.7556 32.3515 11.4333C32.0553 11.1111 31.8596 10.7611 31.7644 10.3833L32.3515 10.15V16H29.7969ZM34.192 10.2333C34.5728 10.2333 34.906 10.1389 35.1916 9.95C35.4772 9.75 35.6994 9.47778 35.8581 9.13333C36.0167 8.78889 36.0961 8.37778 36.0961 7.9C36.0961 7.43333 36.0167 7.02778 35.8581 6.68333C35.6994 6.32778 35.4772 6.05556 35.1916 5.86667C34.9166 5.66667 34.5834 5.56667 34.192 5.56667C33.8007 5.56667 33.4622 5.66111 33.1766 5.85C32.8909 6.03889 32.6688 6.31111 32.5101 6.66667C32.3515 7.02222 32.2721 7.43333 32.2721 7.9C32.2721 8.37778 32.3515 8.78889 32.5101 9.13333C32.6688 9.47778 32.8909 9.75 33.1766 9.95C33.4622 10.1389 33.8007 10.2333 34.192 10.2333Z" fill="#1B1B1B"/>
<path d="M40.256 16V3.48333H42.6678L42.763 5.46667L42.287 5.31667C42.361 4.95 42.5409 4.61667 42.8265 4.31667C43.1121 4.01667 43.4717 3.77778 43.9054 3.6C44.3497 3.41111 44.8151 3.31667 45.3017 3.31667C46.021 3.31667 46.661 3.51667 47.2216 3.91667C47.7822 4.30556 48.2212 4.84444 48.5386 5.53333C48.8665 6.21111 49.0304 7 49.0304 7.9C49.0304 8.78889 48.8665 9.57778 48.5386 10.2667C48.2212 10.9556 47.7769 11.5 47.2057 11.9C46.6451 12.2889 45.9998 12.4833 45.27 12.4833C44.794 12.4833 44.3391 12.3889 43.9054 12.2C43.4717 12.0111 43.1068 11.7556 42.8106 11.4333C42.5144 11.1111 42.3187 10.7611 42.2235 10.3833L42.8106 10.15V16H40.256ZM44.6512 10.2333C45.032 10.2333 45.3652 10.1389 45.6508 9.95C45.9364 9.75 46.1585 9.47778 46.3172 9.13333C46.4759 8.78889 46.5552 8.37778 46.5552 7.9C46.5552 7.43333 46.4759 7.02778 46.3172 6.68333C46.1585 6.32778 45.9364 6.05556 45.6508 5.86667C45.3757 5.66667 45.0425 5.56667 44.6512 5.56667C44.2598 5.56667 43.9213 5.66111 43.6357 5.85C43.3501 6.03889 43.1279 6.31111 42.9693 6.66667C42.8106 7.02222 42.7313 7.43333 42.7313 7.9C42.7313 8.37778 42.8106 8.78889 42.9693 9.13333C43.1279 9.47778 43.3501 9.75 43.6357 9.95C43.9213 10.1389 44.2598 10.2333 44.6512 10.2333Z" fill="#1B1B1B"/>
<path d="M51.6196 12.5167C51.1859 12.5167 50.8474 12.3889 50.6041 12.1333C50.3714 11.8778 50.255 11.5111 50.255 11.0333C50.255 10.5889 50.382 10.2278 50.6358 9.95C50.8897 9.67222 51.2176 9.53333 51.6196 9.53333C52.0533 9.53333 52.3918 9.66667 52.6351 9.93333C52.8784 10.1889 53 10.5556 53 11.0333C53 11.4667 52.8731 11.8222 52.6192 12.1C52.3653 12.3778 52.0321 12.5167 51.6196 12.5167Z" fill="#1B1B1B"/>
</g>
</g>
</svg>
