<svg width="17" height="17" viewBox="0 0 17 17" fill="none" xmlns="http://www.w3.org/2000/svg">
<path d="M8.50004 1.41666C6.54398 1.41666 4.95837 3.00226 4.95837 4.95832C4.95837 6.91439 6.54398 8.49999 8.50004 8.49999C10.4561 8.49999 12.0417 6.91439 12.0417 4.95832C12.0417 3.00226 10.4561 1.41666 8.50004 1.41666ZM5.84379 4.95832C5.84379 4.25384 6.12364 3.57821 6.62179 3.08007C7.11993 2.58193 7.79556 2.30207 8.50004 2.30207C9.20452 2.30207 9.88015 2.58193 10.3783 3.08007C10.8764 3.57821 11.1563 4.25384 11.1563 4.95832C11.1563 5.6628 10.8764 6.33843 10.3783 6.83658C9.88015 7.33472 9.20452 7.61457 8.50004 7.61457C7.79556 7.61457 7.11993 7.33472 6.62179 6.83658C6.12364 6.33843 5.84379 5.6628 5.84379 4.95832ZM4.33858 9.91666C3.93944 9.91666 3.55664 10.0752 3.27436 10.3574C2.99209 10.6396 2.83347 11.0224 2.83337 11.4215V11.6875C2.83337 13.0174 3.52117 14.0133 4.57587 14.6554C5.61358 15.2869 7.00758 15.5833 8.50004 15.5833C9.9925 15.5833 11.3865 15.2869 12.4242 14.6554C13.4789 14.0133 14.1667 13.0174 14.1667 11.6875V11.4215C14.1667 11.2239 14.1278 11.0281 14.0521 10.8455C13.9765 10.6629 13.8656 10.497 13.7258 10.3573C13.586 10.2175 13.4201 10.1067 13.2375 10.0311C13.0549 9.9555 12.8591 9.91661 12.6615 9.91666H4.33858ZM3.71879 11.4215C3.71888 11.2572 3.78423 11.0996 3.90045 10.9835C4.01667 10.8673 4.17426 10.8021 4.33858 10.8021H12.6615C13.004 10.8021 13.2813 11.0794 13.2813 11.4215V11.6875C13.2813 12.6593 12.7996 13.3903 11.9638 13.8993C11.1102 14.4188 9.89262 14.6979 8.50004 14.6979C7.10746 14.6979 5.88983 14.4188 5.03629 13.8993C4.20046 13.3903 3.71879 12.6597 3.71879 11.6875V11.4215Z" fill="black"/>
</svg>
